HIERARCHY
ROOT joint_Root
{
	OFFSET 0.0 0.0 0.0
	CHANNELS 6 Xposition Yposition Zposition Zrotation Xrotation Yrotation 
	JOINT Hips
	{
		OFFSET 4.5925 91.4895 -427.239
		CHANNELS 6 Xposition Yposition Zposition Zrotation Xrotation Yrotation 
		JOINT Spine
		{
			OFFSET 15.7357 0.0 0.0
			CHANNELS 6 Xposition Yposition Zposition Zrotation Xrotation Yrotation 
			JOINT Chest
			{
				OFFSET 8.98455 -0.406207 0.0
				CHANNELS 6 Xposition Yposition Zposition Zrotation Xrotation Yrotation 
				JOINT Neck
				{
					OFFSET 16.3773 0.0 0.0
					CHANNELS 6 Xposition Yposition Zposition Zrotation Xrotation Yrotation 
					JOINT Head
					{
						OFFSET 6.45672 0.0 0.0
						CHANNELS 6 Xposition Yposition Zposition Zrotation Xrotation Yrotation 
						End Site
						{
							OFFSET 0.0 0.0 0.0
						}
					}
				}
				JOINT Shoulder_L
				{
					OFFSET 12.9942 -0.242716 4.98039
					CHANNELS 6 Xposition Yposition Zposition Zrotation Xrotation Yrotation 
					JOINT UpperArm_L
					{
						OFFSET 5.34809 0.0 0.0
						CHANNELS 6 Xposition Yposition Zposition Zrotation Xrotation Yrotation 
						JOINT LowerArm_L
						{
							OFFSET 24.3286 1.87007e-05 0.0
							CHANNELS 6 Xposition Yposition Zposition Zrotation Xrotation Yrotation 
							JOINT Hand_L
							{
								OFFSET 22.2916 0.0 0.0
								CHANNELS 6 Xposition Yposition Zposition Zrotation Xrotation Yrotation 
								End Site
								{
									OFFSET 0.0 0.0 0.0
								}
							}
						}
					}
				}
				JOINT Shoulder_R
				{
					OFFSET 12.9945 -0.242716 -4.98039
					CHANNELS 6 Xposition Yposition Zposition Zrotation Xrotation Yrotation 
					JOINT UpperArm_R
					{
						OFFSET -5.34813 0.0 0.0
						CHANNELS 6 Xposition Yposition Zposition Zrotation Xrotation Yrotation 
						JOINT LowerArm_R
						{
							OFFSET -24.3289 0.000322201 0.0
							CHANNELS 6 Xposition Yposition Zposition Zrotation Xrotation Yrotation 
							JOINT Hand_R
							{
								OFFSET -22.2915 -0.000108084 0.0
								CHANNELS 6 Xposition Yposition Zposition Zrotation Xrotation Yrotation 
								End Site
								{
									OFFSET 0.0 0.0 0.0
								}
							}
						}
					}
				}
			}
		}
		JOINT UpperLeg_L
		{
			OFFSET -2.19248 -6.46944 0.0
			CHANNELS 6 Xposition Yposition Zposition Zrotation Xrotation Yrotation 
			JOINT LowerLeg_L
			{
				OFFSET 39.0811 0.0 -1.23785e-05
				CHANNELS 6 Xposition Yposition Zposition Zrotation Xrotation Yrotation 
				JOINT Foot_L
				{
					OFFSET 40.9854 0.0 -1.26872e-05
					CHANNELS 6 Xposition Yposition Zposition Zrotation Xrotation Yrotation 
					JOINT Toes_L
					{
						OFFSET 11.7543 0.0 0.0
						CHANNELS 6 Xposition Yposition Zposition Zrotation Xrotation Yrotation 
						End Site
						{
							OFFSET 0.0 0.0 0.0
						}
					}
				}
			}
		}
		JOINT UpperLeg_R
		{
			OFFSET -2.19251 6.46944 0.0
			CHANNELS 6 Xposition Yposition Zposition Zrotation Xrotation Yrotation 
			JOINT LowerLeg_R
			{
				OFFSET -39.0811 -0.00228153 -0.0401928
				CHANNELS 6 Xposition Yposition Zposition Zrotation Xrotation Yrotation 
				JOINT Foot_R
				{
					OFFSET -40.9854 0.0 0.0
					CHANNELS 6 Xposition Yposition Zposition Zrotation Xrotation Yrotation 
					JOINT Toes_R
					{
						OFFSET -11.7543 0.0 0.0
						CHANNELS 6 Xposition Yposition Zposition Zrotation Xrotation Yrotation 
						End Site
						{
							OFFSET 0.0 0.0 0.0
						}
					}
				}
			}
		}
	}
}
MOTION
Frames:	7
Frame Time:	0.0333333
0.000000 0.000000 0.000000 0.000000 0.000000 -0.000000 -0.600860 90.595900 -6.355570 89.336500 -3.492420 11.623300 15.735700 0.000005 -0.000001 90.400500 75.519600 -90.622400 8.984550 -0.406207 -0.000000 21.194400 0.171548 -0.477507 16.377300 -0.000001 -0.000001 10.887000 -4.256970 -0.394623 6.456720 -0.000001 -0.000000 -9.854810 -4.283910 1.060090 12.994200 -0.242716 4.980390 -89.702000 -0.899463 -71.669300 5.348090 -0.000007 -0.000001 -77.367300 -23.313100 -87.506500 24.328600 0.000019 0.000005 39.428800 -6.854560 -98.258800 22.291600 -0.000001 0.000005 17.039000 5.011860 7.066130 12.994500 -0.242716 -4.980390 89.178900 8.894490 -84.704000 -5.348130 -0.000001 -0.000004 -53.337000 34.765000 -28.071400 -24.328900 0.000322 -0.000009 1.385720 3.403800 -22.182700 -22.291500 -0.000108 -0.000004 16.953700 5.417380 -3.510930 -2.192480 -6.469440 -0.000000 -174.716000 -11.156500 -4.000120 39.081100 -0.000007 -0.000012 -0.157319 0.238838 33.372600 40.985400 -0.000006 -0.000013 0.482740 5.852240 -67.619200 11.754300 -0.000000 0.000003 -0.000065 -0.000709 -16.605000 -2.192510 6.469440 -0.000001 175.277000 19.550200 176.998000 -39.081100 -0.002282 -0.040193 -0.153747 0.244154 32.749800 -40.985400 0.000008 0.000006 3.982730 13.342600 -68.059800 -11.754300 -0.000006 -0.000006 -0.003678 -0.048048 -18.527400
0.000000 0.000000 0.000000 0.000000 0.000000 -0.000000 -0.592280 90.597500 -6.375620 89.288500 -3.368990 11.634600 15.735700 0.000005 -0.000001 90.326600 75.532500 -90.471700 8.984550 -0.406207 -0.000000 21.168800 0.143982 -0.318155 16.377300 -0.000001 -0.000001 10.911000 -4.262040 -0.107875 6.456720 -0.000001 -0.000000 -9.727040 -4.144380 0.727522 12.994200 -0.242716 4.980390 -89.727400 -0.825170 -71.716300 5.348090 -0.000007 -0.000001 -77.327900 -23.249700 -87.282000 24.328600 0.000019 0.000005 39.245400 -6.818280 -98.269000 22.291600 -0.000001 0.000005 17.193100 5.013250 7.036250 12.994500 -0.242716 -4.980390 89.171200 8.889950 -84.652100 -5.348130 -0.000001 -0.000004 -53.305300 34.730500 -28.090100 -24.328900 0.000322 -0.000009 1.412340 3.484800 -22.093300 -22.291500 -0.000108 -0.000004 17.005900 5.415730 -3.455790 -2.192480 -6.469440 -0.000000 -174.695000 -11.068000 -4.038180 39.081100 -0.000007 -0.000012 -0.156888 0.237969 33.396400 40.985400 -0.000006 -0.000013 0.505766 5.898470 -67.603600 11.754300 -0.000000 0.000003 -0.000057 -0.000639 -16.602300 -2.192510 6.469440 -0.000001 175.283000 19.695800 177.034000 -39.081100 -0.002282 -0.040193 -0.153696 0.244404 32.714600 -40.985400 0.000008 0.000006 3.978000 13.358300 -68.032500 -11.754300 -0.000006 -0.000006 -0.003852 -0.049891 -18.602500
0.000000 0.000000 0.000000 0.000000 0.000000 -0.000000 -0.566979 90.602500 -6.379710 89.257500 -3.274520 11.678500 15.735700 0.000005 -0.000001 90.332700 75.534000 -90.405700 8.984550 -0.406207 -0.000000 21.165700 0.155344 -0.175595 16.377300 -0.000001 -0.000001 10.923500 -4.271060 0.091318 6.456720 -0.000001 -0.000000 -9.590340 -4.105320 0.736049 12.994200 -0.242716 4.980390 -89.749900 -0.757531 -71.725000 5.348090 -0.000007 -0.000001 -77.165100 -23.135500 -87.055200 24.328600 0.000019 0.000005 39.257700 -6.732340 -98.163100 22.291600 -0.000001 0.000005 17.274800 5.013100 7.039520 12.994500 -0.242716 -4.980390 89.158100 8.936780 -84.596300 -5.348130 -0.000001 -0.000004 -53.285100 34.613100 -28.098400 -24.328900 0.000322 -0.000009 1.421340 3.521450 -22.011600 -22.291500 -0.000108 -0.000004 17.063900 5.415690 -3.454510 -2.192480 -6.469440 -0.000000 -174.692000 -11.002700 -4.007940 39.081100 -0.000007 -0.000012 -0.156933 0.238066 33.393200 40.985400 -0.000006 -0.000013 0.530902 5.905720 -67.595800 11.754300 -0.000000 0.000003 -0.000060 -0.000668 -16.603400 -2.192510 6.469440 -0.000001 175.259000 19.776300 177.121000 -39.081100 -0.002282 -0.040193 -0.152055 0.242292 32.666900 -40.985400 0.000008 0.000006 3.953850 13.364300 -68.009000 -11.754300 -0.000006 -0.000006 -0.003676 -0.048023 -18.526400
0.000000 0.000000 0.000000 0.000000 0.000000 -0.000000 -0.522619 90.596800 -6.391400 89.264500 -3.249980 11.704600 15.735700 0.000005 -0.000001 90.351600 75.544100 -90.373500 8.984550 -0.406207 -0.000000 21.145300 0.170497 -0.075720 16.377300 -0.000001 -0.000001 10.948600 -4.303570 0.210509 6.456720 -0.000001 -0.000000 -9.466300 -4.149200 0.886790 12.994200 -0.242716 4.980390 -89.747200 -0.765570 -71.722600 5.348090 -0.000007 -0.000001 -77.021600 -23.128100 -86.812300 24.328600 0.000019 0.000005 39.336400 -6.663750 -98.059100 22.291600 -0.000001 0.000005 17.181100 5.013060 7.040370 12.994500 -0.242716 -4.980390 89.151700 8.990950 -84.587800 -5.348130 -0.000001 -0.000004 -53.314700 34.504700 -28.124500 -24.328900 0.000322 -0.000009 1.456600 3.626310 -21.916100 -22.291500 -0.000108 -0.000004 17.109000 5.414710 -3.421870 -2.192480 -6.469440 -0.000000 -174.725000 -10.996600 -4.013930 39.081100 -0.000007 -0.000012 -0.157065 0.237982 33.424600 40.985400 -0.000006 -0.000013 0.570324 5.933730 -67.603100 11.754300 -0.000000 0.000003 -0.000056 -0.000627 -16.601900 -2.192510 6.469440 -0.000001 175.206000 19.782400 177.131000 -39.081100 -0.002282 -0.040193 -0.153565 0.244374 32.696200 -40.985400 0.000008 0.000006 3.921110 13.363900 -68.008800 -11.754300 -0.000006 -0.000006 -0.003952 -0.050940 -18.645200
0.000000 0.000000 0.000000 0.000000 0.000000 -0.000000 -0.465802 90.598700 -6.394220 89.323000 -3.269460 11.740200 15.735700 0.000005 -0.000001 90.367100 75.552500 -90.356000 8.984550 -0.406207 -0.000000 21.128300 0.181852 -0.011497 16.377300 -0.000001 -0.000001 10.932100 -4.354800 0.287052 6.456720 -0.000001 -0.000000 -9.367450 -4.240550 0.955992 12.994200 -0.242716 4.980390 -89.759100 -0.728717 -71.708600 5.348090 -0.000007 -0.000001 -76.871800 -23.182800 -86.658300 24.328600 0.000019 0.000005 39.434900 -6.570430 -97.920700 22.291600 -0.000001 0.000005 16.937100 5.012670 7.048880 12.994500 -0.242716 -4.980390 89.152300 8.985750 -84.588100 -5.348130 -0.000001 -0.000004 -53.292500 34.577300 -28.246300 -24.328900 0.000322 -0.000009 1.418750 3.544390 -21.846700 -22.291500 -0.000108 -0.000004 17.049900 5.416390 -3.477780 -2.192480 -6.469440 -0.000000 -174.817000 -11.063300 -3.959820 39.081100 -0.000007 -0.000012 -0.153481 0.232830 33.393100 40.985400 -0.000006 -0.000013 0.619934 5.927060 -67.597500 11.754300 -0.000000 0.000003 -0.000061 -0.000676 -16.603700 -2.192510 6.469440 -0.000001 175.110000 19.729100 177.139000 -39.081100 -0.002282 -0.040193 -0.154888 0.246238 32.716900 -40.985400 0.000008 0.000006 3.881970 13.360000 -67.994600 -11.754300 -0.000006 -0.000006 -0.003693 -0.048210 -18.534000
0.000000 0.000000 0.000000 0.000000 0.000000 -0.000000 -0.410169 90.591500 -6.401240 89.370600 -3.325950 11.771700 15.735700 0.000005 -0.000001 90.360400 75.560100 -90.322200 8.984550 -0.406207 -0.000000 21.113200 0.181602 0.042975 16.377300 -0.000001 -0.000001 10.924500 -4.413020 0.343440 6.456720 -0.000001 -0.000000 -9.354510 -4.315730 0.973782 12.994200 -0.242716 4.980390 -89.766200 -0.706846 -71.693200 5.348090 -0.000007 -0.000001 -76.812100 -23.276600 -86.585800 24.328600 0.000019 0.000005 39.588700 -6.527890 -97.827900 22.291600 -0.000001 0.000005 16.912500 5.012240 7.057980 12.994500 -0.242716 -4.980390 89.150200 8.998100 -84.582500 -5.348130 -0.000001 -0.000004 -53.215500 34.737900 -28.388600 -24.328900 0.000322 -0.000009 1.419280 3.532230 -21.922000 -22.291500 -0.000108 -0.000004 17.066000 5.416030 -3.465910 -2.192480 -6.469440 -0.000000 -174.882000 -11.116400 -3.935480 39.081100 -0.000007 -0.000012 -0.152609 0.231372 33.408500 40.985400 -0.000006 -0.000013 0.661130 5.943810 -67.610900 11.754300 -0.000000 0.000003 -0.000056 -0.000628 -16.601900 -2.192510 6.469440 -0.000001 175.041000 19.599100 177.117000 -39.081100 -0.002282 -0.040193 -0.156194 0.247706 32.776300 -40.985400 0.000008 0.000006 3.828450 13.312700 -67.995600 -11.754300 -0.000006 -0.000006 -0.003828 -0.049640 -18.592300
0.000000 0.000000 0.000000 0.000000 0.000000 -0.000000 -0.363460 90.592500 -6.403400 89.392800 -3.356050 11.795600 15.735700 0.000005 -0.000001 90.307700 75.563200 -90.234400 8.984550 -0.406207 -0.000000 21.107200 0.159681 0.117240 16.377300 -0.000001 -0.000001 10.905100 -4.469800 0.361292 6.456720 -0.000001 -0.000000 -9.324250 -4.363820 0.966582 12.994200 -0.242716 4.980390 -89.776700 -0.674185 -71.676600 5.348090 -0.000007 -0.000001 -76.900500 -23.273200 -86.664600 24.328600 0.000019 0.000005 39.595300 -6.496380 -97.789000 22.291600 -0.000001 0.000005 16.936800 5.011830 7.066810 12.994500 -0.242716 -4.980390 89.146000 9.002430 -84.558500 -5.348130 -0.000001 -0.000004 -53.166400 34.844100 -28.494700 -24.328900 0.000322 -0.000009 1.407950 3.463960 -22.151000 -22.291500 -0.000108 -0.000004 17.036300 5.417130 -3.502660 -2.192480 -6.469440 -0.000000 -174.919000 -11.222400 -3.902930 39.081100 -0.000007 -0.000012 -0.151272 0.229421 33.399700 40.985400 -0.000006 -0.000013 0.710632 5.965390 -67.612600 11.754300 -0.000000 0.000003 -0.000065 -0.000713 -16.605100 -2.192510 6.469440 -0.000001 174.990000 19.547000 177.127000 -39.081100 -0.002282 -0.040193 -0.156764 0.248548 32.780900 -40.985400 0.000008 0.000006 3.793490 13.310600 -67.979700 -11.754300 -0.000006 -0.000006 -0.003666 -0.047924 -18.522400
